<svg width="480" height="480" viewBox="0 0 480 480" fill="none" xmlns="http://www.w3.org/2000/svg">
<path d="M464.56 345.504C463.712 344.8 367.888 276.224 341.888 280.72C329.392 282.928 322.24 291.44 307.92 308.512C305.616 311.264 300.064 317.84 295.776 322.528C286.725 319.579 277.897 315.986 269.36 311.776C225.288 290.32 189.68 254.712 168.224 210.64C164.014 202.103 160.421 193.275 157.472 184.224C162.176 179.92 168.768 174.368 171.584 172C188.56 157.76 197.072 150.608 199.28 138.096C203.808 112.192 135.2 16.288 134.496 15.424C131.372 10.9929 127.302 7.31079 122.582 4.64347C117.862 1.97615 112.608 0.390162 107.2 0C79.392 0 0 102.976 0 120.336C0 121.344 1.456 223.808 127.808 352.336C256.192 478.544 358.656 480 359.664 480C377.024 480 480 400.608 480 372.8C479.61 367.39 478.023 362.135 475.352 357.414C472.682 352.693 468.996 348.625 464.56 345.504ZM357.904 447.904C343.92 446.752 257.936 435.408 150.432 329.792C44.272 221.712 33.216 135.488 32.112 122.128C53.0844 89.2103 78.4127 59.2803 107.408 33.152C108.048 33.792 108.896 34.752 109.984 36C132.221 66.3557 151.377 98.8523 167.168 133.008C162.033 138.174 156.605 143.041 150.912 147.584C142.083 154.311 133.976 161.936 126.72 170.336L122.832 175.776L123.984 182.352C127.37 197.02 132.556 211.213 139.424 224.608C164.03 275.136 204.86 315.961 255.392 340.56C268.785 347.438 282.978 352.629 297.648 356.016L304.224 357.168L309.664 353.28C318.096 345.992 325.752 337.853 332.512 328.992C337.52 323.008 344.224 315.024 346.752 312.768C381.005 328.543 413.585 347.722 444 370.016C445.328 371.136 446.256 372 446.88 372.56C420.756 401.564 390.825 426.898 357.904 447.872V447.904Z" fill="white"/>
</svg>
